<svg width="25" height="25" viewBox="0 0 25 25" fill="none" xmlns="http://www.w3.org/2000/svg">
<path d="M12.5 0C5.60769 0 0 5.60769 0 12.5C0 19.3923 5.60769 25 12.5 25C19.3923 25 25 19.3923 25 12.5C25 5.60769 19.3923 0 12.5 0ZM17.6281 13.4615H13.4615V17.6281C13.4615 18.1589 13.0308 18.5897 12.5 18.5897C11.9692 18.5897 11.5385 18.1589 11.5385 17.6281V13.4615H7.37187C6.84109 13.4615 6.41033 13.0308 6.41033 12.5C6.41033 11.9692 6.84109 11.5385 7.37187 11.5385H11.5385V7.37187C11.5385 6.84109 11.9692 6.41033 12.5 6.41033C13.0308 6.41033 13.4615 6.84109 13.4615 7.37187V11.5385H17.6281C18.1589 11.5385 18.5897 11.9692 18.5897 12.5C18.5897 13.0308 18.1589 13.4615 17.6281 13.4615Z" fill="#0744E1"/>
</svg>
