<svg width="21" height="20" viewBox="0 0 21 20" fill="none" xmlns="http://www.w3.org/2000/svg">
<path id="Vector" d="M8.77297 19.4843C9.46058 20.1719 10.5513 20.1719 11.2389 19.4843C11.9265 18.7967 11.9265 17.706 11.2389 17.0184L5.9751 11.7546H18.3758C19.348 11.7546 20.1304 10.9721 20.1304 10C20.1304 9.02786 19.348 8.24541 18.3758 8.24541H5.9751L11.2389 2.98162C11.9265 2.29401 11.9265 1.17961 11.2389 0.515708C10.5513 -0.171903 9.46058 -0.171903 8.77297 0.515708L0.521636 8.74333C0.450504 8.81446 0.403082 8.88559 0.33195 8.95673V8.98044L0.308239 9.00415L0.284529 9.02786L0.260818 9.07528C0.260818 9.09899 0.237107 9.1227 0.213397 9.14641L0.189686 9.19383C0.0711322 9.43094 0 9.71547 0 10C0 10.2845 0.0711322 10.5453 0.189686 10.7587V10.7825L0.213397 10.8062V10.8536C0.237107 10.8773 0.260818 10.901 0.260818 10.9247L0.284529 10.9484L0.308239 10.9958L0.33195 11.0196C0.403082 11.0907 0.450504 11.1855 0.521636 11.2567L8.77297 19.4843Z" fill="white"/>
</svg>
