<svg width="20" height="18" viewBox="0 0 20 18" fill="none" xmlns="http://www.w3.org/2000/svg">
<path fill-rule="evenodd" clip-rule="evenodd" d="M15.5262 4.73123e-05H4.03621C2.96578 4.73123e-05 1.93905 0.437308 1.18207 1.21556C0.425289 1.99361 0 3.0492 0 4.14973V11.1924C0 12.2929 0.425304 13.3483 1.18207 14.1266C1.93905 14.9049 2.96578 15.3421 4.03621 15.3421H12.5093V15.8837C12.5093 16.7077 12.7269 17.5878 13.5598 17.9056C14.3383 18.1999 15.0483 17.7643 15.5635 17.1757C16.4796 16.131 17.4154 15.1157 18.3888 14.1209L18.3886 14.1207C19.1484 13.3412 19.5721 12.2811 19.5651 11.1777V4.14968C19.5637 3.04915 19.1376 1.99414 18.3805 1.21614C17.6231 0.438086 16.5968 0.000840856 15.5261 0L15.5262 4.73123e-05ZM18.3286 11.1834C18.3278 11.9486 18.0337 12.6823 17.5099 13.2258C16.5165 14.25 15.6693 15.1535 14.6474 16.3306C14.0749 17.0017 13.7542 16.8132 13.7542 15.8833V14.0734H4.03595C3.29318 14.0718 2.58113 13.7677 2.05601 13.2278C1.53068 12.6877 1.23497 11.9559 1.23354 11.1922V4.14953C1.23494 3.38609 1.53086 2.65444 2.05621 2.11492C2.58156 1.57541 3.29338 1.27202 4.03595 1.27118H15.5259C16.2681 1.27364 16.9791 1.57746 17.5041 2.11676C18.029 2.65585 18.3253 3.38666 18.3283 4.14953L18.3286 11.1834ZM14.8191 5.5744C14.8191 5.73042 14.7588 5.88007 14.6516 5.99052C14.5442 6.10096 14.3986 6.16296 14.2467 6.16296H5.30383C4.98775 6.16296 4.73138 5.89937 4.73138 5.57441C4.73138 5.24923 4.98776 4.98565 5.30383 4.98565H14.2467C14.3986 4.98565 14.5442 5.04765 14.6516 5.15809C14.7588 5.26854 14.8191 5.41817 14.8191 5.5744ZM14.8191 9.33544C14.8191 9.49146 14.7588 9.64132 14.6516 9.75156C14.5442 9.86201 14.3986 9.924 14.2467 9.924H5.30383C4.98775 9.924 4.73138 9.66041 4.73138 9.33545C4.73138 9.01028 4.98776 8.74691 5.30383 8.74691H14.2467C14.3986 8.74691 14.5442 8.8089 14.6516 8.91935C14.7588 9.02959 14.8191 9.17942 14.8191 9.33544Z" fill="black"/>
</svg>
