<svg width="15" height="15" viewBox="0 0 15 15" fill="none" xmlns="http://www.w3.org/2000/svg">
<path fill-rule="evenodd" clip-rule="evenodd" d="M0.699756 14.4282C0.463262 14.1961 0.459711 13.8162 0.691826 13.5797L13.4511 0.579722C13.6832 0.343227 14.0631 0.339677 14.2996 0.571791C14.5361 0.803906 14.5396 1.18379 14.3075 1.42028L1.54825 14.4203C1.31613 14.6568 0.93625 14.6603 0.699756 14.4282Z" fill="white"/>
<path fill-rule="evenodd" clip-rule="evenodd" d="M0.571785 0.700122C0.803899 0.463628 1.18378 0.460078 1.42028 0.692192L14.4203 13.4514C14.6568 13.6836 14.6603 14.0634 14.4282 14.2999C14.1961 14.5364 13.8162 14.54 13.5797 14.3079L0.579715 1.54861C0.343221 1.3165 0.339671 0.936617 0.571785 0.700122Z" fill="white"/>
</svg>
