<svg width="20" height="20" viewBox="0 0 20 20" fill="none" xmlns="http://www.w3.org/2000/svg">
<path d="M0.78329 19.2242C1.3204 19.7613 2.00671 20 2.69302 20C3.37934 20 4.06565 19.7314 4.60276 19.2242L10.0037 13.7934L15.4047 19.1943C15.9418 19.7314 16.6281 19.9702 17.3144 19.9702C18.0007 19.9702 18.6871 19.7016 19.2242 19.1943C20.2686 18.1499 20.2686 16.4491 19.2242 15.4047L13.7934 10.0037L19.1943 4.60276C20.2387 3.55837 20.2387 1.85752 19.1943 0.81313C18.1499 -0.231257 16.4491 -0.231257 15.4047 0.81313L10.0037 6.2141L4.60276 0.78329C3.55837 -0.261097 1.85752 -0.261097 0.81313 0.78329C-0.231257 1.82768 -0.231257 3.52853 0.81313 4.57292L6.2141 10.0037L0.78329 15.4047C-0.261097 16.4789 -0.261097 18.1499 0.78329 19.2242Z" fill="white"/>
</svg>
