<svg width="15" height="15" viewBox="0 0 15 15" fill="none" xmlns="http://www.w3.org/2000/svg">
<path d="M7.91014 6.09368C7.91014 6.21798 7.86393 6.33726 7.78154 6.42515C7.69899 6.51304 7.58732 6.56248 7.47079 6.56248H3.07618C2.83341 6.56248 2.63669 6.35248 2.63669 6.09368C2.63669 5.83488 2.83341 5.62488 3.07618 5.62488H7.47079C7.58732 5.62488 7.69899 5.67432 7.78154 5.76221C7.86393 5.8501 7.91014 5.96938 7.91014 6.09368ZM7.47064 7.49976H3.07641C2.83364 7.49976 2.63692 7.7096 2.63692 7.96856C2.63692 8.22736 2.83364 8.43736 3.07641 8.43736H7.47102C7.71364 8.43736 7.91036 8.22736 7.91036 7.96856C7.91036 7.7096 7.71364 7.49976 7.47102 7.49976H7.47064ZM7.47064 9.37496H3.07641C2.83364 9.37496 2.63692 9.58496 2.63692 9.84376C2.63692 10.1027 2.83364 10.3126 3.07641 10.3126H7.47102C7.71364 10.3126 7.91036 10.1027 7.91036 9.84376C7.91036 9.58496 7.71364 9.37496 7.47102 9.37496H7.47064ZM7.47079 11.2498H3.07618C2.83341 11.2498 2.63669 11.4598 2.63669 11.7186C2.63669 11.9774 2.83341 12.1874 3.07618 12.1874H7.47079C7.71341 12.1874 7.91013 11.9774 7.91013 11.7186C7.91013 11.4598 7.71341 11.2498 7.47079 11.2498ZM14.0625 1.87504V10.3125C14.0625 10.8097 13.8773 11.2866 13.5477 11.6384C13.2179 11.9899 12.7708 12.1875 12.3047 12.1875H10.5468V13.125C10.5468 13.6222 10.3617 14.0991 10.032 14.4508C9.7024 14.8024 9.25526 15 8.78913 15H1.75784C1.29171 15 0.844568 14.8024 0.514832 14.4508C0.185246 14.0991 0 13.6222 0 13.125V4.68752C0 4.19031 0.185246 3.71336 0.514832 3.36164C0.844564 3.01008 1.29171 2.81248 1.75784 2.81248H3.51568V1.87504C3.51568 1.37783 3.70078 0.900877 4.03051 0.549157C4.3601 0.197597 4.80724 0 5.27337 0H12.3047C12.7708 0 13.2179 0.197597 13.5477 0.549157C13.8773 0.900873 14.0625 1.37783 14.0625 1.87504ZM9.6679 4.68752C9.6676 4.43892 9.57491 4.20068 9.41011 4.0249C9.24547 3.84912 9.02196 3.75024 8.78906 3.75009H1.75777C1.52471 3.75025 1.30136 3.84912 1.13657 4.0249C0.971777 4.20068 0.879082 4.43894 0.878935 4.68752V13.125C0.879083 13.3736 0.971777 13.6118 1.13657 13.7876C1.30136 13.9634 1.52473 14.0622 1.75777 14.0624H8.78906C9.02198 14.0622 9.24547 13.9634 9.41011 13.7876C9.57491 13.6118 9.6676 13.3735 9.6679 13.125V4.68752ZM13.1834 1.87504C13.1833 1.62644 13.0906 1.3882 12.9258 1.21242C12.761 1.03664 12.5376 0.937765 12.3046 0.937608H5.2733C5.04039 0.937765 4.81689 1.03664 4.65225 1.21242C4.48746 1.3882 4.39476 1.62646 4.39447 1.87504V2.81248H8.78907C9.2552 2.81248 9.70234 3.01008 10.0319 3.36164C10.3617 3.71335 10.5468 4.19031 10.5468 4.68752V11.2498H12.3046C12.5377 11.2497 12.761 11.1508 12.9258 10.975C13.0906 10.7992 13.1833 10.561 13.1834 10.3124L13.1834 1.87504Z" fill="#424242"/>
</svg>
