<svg width="23" height="20" viewBox="0 0 23 20" fill="none" xmlns="http://www.w3.org/2000/svg">
<g id="Group">
<path id="Vector" d="M2.87453 5.113H20.1245C21.7144 5.113 23.0026 3.97101 23.0026 2.55624C23.0026 1.14608 21.7144 0 20.1245 0H2.87453C1.28848 0 0 1.14582 0 2.55624C0.00025565 3.97101 1.28873 5.113 2.87453 5.113Z" fill="white"/>
<path id="Vector_2" d="M13.9981 7.44385H1.99944C0.896229 7.44385 0 8.58967 0 10.0003C0 11.4146 0.896229 12.5568 1.99944 12.5568H13.9981C15.1039 12.5568 16 11.4146 16 10.0003C16 8.58967 15.1039 7.44385 13.9981 7.44385Z" fill="white"/>
<path id="Vector_3" d="M20.1245 14.8871H2.87453C1.28848 14.8871 0 16.0329 0 17.4438C0 18.8578 1.28848 20.0001 2.87453 20.0001H20.1245C21.7144 20.0001 23.0026 18.8578 23.0026 17.4438C23.0026 16.0332 21.7144 14.8871 20.1245 14.8871Z" fill="white"/>
</g>
</svg>
