<svg width="22" height="22" viewBox="0 0 22 22" fill="none" xmlns="http://www.w3.org/2000/svg">
<path d="M2.03167 7.21892C2.30529 7.21892 2.5677 7.11023 2.76118 6.91675C2.95465 6.72328 3.06334 6.46087 3.06334 6.18725V4.52213L6.15011 7.60889C6.24528 7.70743 6.35912 7.78602 6.48498 7.84009C6.61085 7.89416 6.74623 7.92262 6.88321 7.92381C7.0202 7.925 7.15605 7.8989 7.28284 7.84703C7.40963 7.79515 7.52481 7.71855 7.62168 7.62168C7.71855 7.52481 7.79515 7.40963 7.84703 7.28284C7.8989 7.15605 7.925 7.0202 7.92381 6.88321C7.92262 6.74623 7.89416 6.61085 7.84009 6.48498C7.78602 6.35912 7.70743 6.24528 7.60889 6.15011L4.52213 3.06334H6.18725C6.46087 3.06334 6.72328 2.95465 6.91675 2.76117C7.11023 2.5677 7.21892 2.30529 7.21892 2.03167C7.21892 1.75806 7.11023 1.49565 6.91675 1.30217C6.72328 1.10869 6.46087 1 6.18725 1H2.03167C1.75839 1.00109 1.49661 1.11013 1.30337 1.30337C1.11013 1.49661 1.00109 1.75839 1 2.03167V6.18725C1 6.46087 1.10869 6.72328 1.30217 6.91675C1.49565 7.11023 1.75806 7.21892 2.03167 7.21892Z" fill="white" stroke="white" stroke-width="0.5"/>
<path d="M19.9137 14.7605C19.64 14.7605 19.3776 14.8692 19.1842 15.0626C18.9907 15.2561 18.882 15.5185 18.882 15.7921V17.4573L15.7952 14.3684C15.7001 14.2699 15.5862 14.1913 15.4604 14.1372C15.3345 14.0832 15.1991 14.0547 15.0621 14.0535C14.9251 14.0523 14.7893 14.0784 14.6625 14.1303C14.5357 14.1822 14.4205 14.2588 14.3237 14.3556C14.2268 14.4525 14.1502 14.5677 14.0983 14.6945C14.0464 14.8213 14.0203 14.9571 14.0215 15.0941C14.0227 15.2311 14.0512 15.3665 14.1052 15.4923C14.1593 15.6182 14.2379 15.732 14.3364 15.8272L17.4232 18.9147H15.7581C15.4845 18.9147 15.2221 19.0234 15.0286 19.2168C14.8351 19.4103 14.7264 19.6727 14.7264 19.9463C14.7264 20.2199 14.8351 20.4824 15.0286 20.6758C15.2221 20.8693 15.4845 20.978 15.7581 20.978H19.9137C20.1869 20.9769 20.4487 20.8679 20.642 20.6746C20.8352 20.4814 20.9442 20.2196 20.9453 19.9463V15.7921C20.9453 15.5185 20.8366 15.2561 20.6432 15.0626C20.4497 14.8692 20.1873 14.7605 19.9137 14.7605Z" fill="white" stroke="white" stroke-width="0.5"/>
<path d="M7.24431 19.9649C7.24431 19.6913 7.13562 19.4289 6.94214 19.2354C6.74867 19.0419 6.48626 18.9332 6.21264 18.9332H4.54752L7.63428 15.8465C7.82221 15.6519 7.9262 15.3913 7.92385 15.1208C7.9215 14.8503 7.813 14.5915 7.62172 14.4003C7.43044 14.209 7.17168 14.1005 6.90118 14.0981C6.63068 14.0958 6.37007 14.1998 6.1755 14.3877L3.08874 17.4745V15.8128C3.08874 15.5392 2.98004 15.2767 2.78657 15.0833C2.59309 14.8898 2.33068 14.7811 2.05706 14.7811C1.78345 14.7811 1.52104 14.8898 1.32756 15.0833C1.13408 15.2767 1.02539 15.5392 1.02539 15.8128V19.9683C1.02553 20.1033 1.05217 20.237 1.1038 20.3618C1.20925 20.6143 1.40987 20.8152 1.66228 20.9209C1.7874 20.973 1.92155 20.9998 2.05706 21H6.21264C6.34841 21 6.48285 20.9732 6.60824 20.9212C6.73363 20.8691 6.84752 20.7928 6.94336 20.6966C7.0392 20.6005 7.11513 20.4863 7.16677 20.3608C7.21841 20.2352 7.24476 20.1007 7.24431 19.9649Z" fill="white" stroke="white" stroke-width="0.5"/>
<path d="M20.3084 1.11282C20.1833 1.06078 20.0492 1.0339 19.9137 1.03372H15.7581C15.4845 1.03372 15.2221 1.14242 15.0286 1.33589C14.8351 1.52937 14.7264 1.79178 14.7264 2.06539C14.7264 2.33901 14.8351 2.60142 15.0286 2.7949C15.2221 2.98837 15.4845 3.09707 15.7581 3.09707H17.4232L14.3364 6.18383C14.2379 6.279 14.1593 6.39284 14.1052 6.51871C14.0512 6.64458 14.0227 6.77995 14.0215 6.91694C14.0203 7.05392 14.0464 7.18977 14.0983 7.31656C14.1502 7.44335 14.2268 7.55854 14.3237 7.6554C14.4205 7.75227 14.5357 7.82887 14.6625 7.88075C14.7893 7.93262 14.9251 7.95872 15.0621 7.95753C15.1991 7.95634 15.3345 7.92788 15.4604 7.87381C15.5862 7.81975 15.7001 7.74115 15.7952 7.64262L18.882 4.55585V6.22097C18.882 6.49459 18.9907 6.757 19.1842 6.95047C19.3776 7.14395 19.64 7.25264 19.9137 7.25264C20.1873 7.25264 20.4497 7.14395 20.6432 6.95047C20.8366 6.757 20.9453 6.49459 20.9453 6.22097V2.06539C20.9452 1.86144 20.8847 1.6621 20.7713 1.49255C20.6579 1.32301 20.4969 1.19086 20.3084 1.11282Z" fill="white" stroke="white" stroke-width="0.5"/>
</svg>
