<svg width="13" height="13" viewBox="0 0 13 13" fill="none" xmlns="http://www.w3.org/2000/svg">
<path d="M5.01094 7.47418C5.15008 7.47343 5.28379 7.5282 5.38234 7.62657C5.48076 7.72483 5.53597 7.85852 5.53548 7.99778C5.53498 8.13692 5.47903 8.27023 5.37986 8.36787L1.79134 11.9537H4.8223C5.00911 11.9537 5.18169 12.0534 5.27502 12.2152C5.36837 12.3772 5.36837 12.5765 5.27502 12.7384C5.18168 12.9003 5.0091 13 4.8223 13H0.496304C0.395408 12.9916 0.298969 12.954 0.218997 12.8917C0.185818 12.8713 0.155118 12.847 0.12751 12.8196C0.0460518 12.7256 0.000741599 12.6055 0 12.481V8.16534C0 7.97837 0.0995325 7.80578 0.261337 7.71224C0.423019 7.61882 0.622344 7.61882 0.784006 7.71224C0.945811 7.80578 1.04534 7.97838 1.04534 8.16534V11.2183L4.6421 7.62675C4.74002 7.529 4.87261 7.47411 5.0109 7.47411L5.01094 7.47418ZM12.4732 0H8.18872C8.00191 0 7.82933 0.0997392 7.736 0.261555C7.64265 0.423494 7.64265 0.622862 7.736 0.784785C7.82934 0.946601 8.00191 1.04634 8.18872 1.04634H11.2197L7.63116 4.63499C7.49944 4.76694 7.44794 4.95912 7.49622 5.13925C7.5445 5.3194 7.68501 5.46002 7.86502 5.50836C8.04502 5.55668 8.23703 5.50514 8.36886 5.37331L11.9545 1.78181V4.83472C11.9545 5.02169 12.0542 5.19429 12.2159 5.28782C12.3777 5.38124 12.5769 5.38124 12.7387 5.28782C12.9003 5.19428 13 5.02169 13 4.83472V0.52448C12.9996 0.392524 12.9494 0.265777 12.8592 0.169517C12.7692 0.0732446 12.6462 0.0146413 12.5147 0.00547148H12.4731L12.4732 0Z" fill="white"/>
</svg>
