<svg width="15" height="22" viewBox="0 0 15 22" fill="none" xmlns="http://www.w3.org/2000/svg">
<g id="Group">
<path id="Vector" d="M7.07348 14.1476C8.24607 14.1476 9.3705 13.6818 10.1997 12.8526C11.0288 12.0234 11.4946 10.899 11.4946 9.72644V4.42107C11.4946 2.84149 10.652 1.38196 9.28405 0.592268C7.91607 -0.197423 6.23089 -0.197423 4.86291 0.592268C3.49494 1.38196 2.65234 2.84154 2.65234 4.42107V9.72644C2.65234 10.899 3.11814 12.0235 3.94731 12.8526C4.77647 13.6818 5.90089 14.1476 7.07348 14.1476ZM4.4208 4.42107C4.4208 3.47328 4.92648 2.59754 5.74714 2.12385C6.5678 1.64996 7.57916 1.64996 8.39982 2.12385C9.22049 2.59754 9.72616 3.47328 9.72616 4.42107V9.72644C9.72616 10.6742 9.22049 11.55 8.39982 12.0237C7.57916 12.4975 6.5678 12.4975 5.74714 12.0237C4.92648 11.55 4.4208 10.6742 4.4208 9.72644V4.42107Z" fill="#0744E1"/>
<path id="Vector_2" d="M14.1476 9.72635C14.1476 9.41035 13.9791 9.11845 13.7055 8.96056C13.432 8.80266 13.0949 8.80266 12.8213 8.96056C12.5477 9.11845 12.3792 9.41037 12.3792 9.72635C12.3792 11.6217 11.368 13.3732 9.7265 14.321C8.08497 15.2686 6.06267 15.2686 4.42114 14.321C2.77961 13.3732 1.76845 11.6217 1.76845 9.72635C1.76845 9.41035 1.5999 9.11845 1.32634 8.96056C1.05278 8.80266 0.715668 8.80266 0.442114 8.96056C0.168559 9.11845 0 9.41037 0 9.72635C0.00157898 11.4482 0.630985 13.1103 1.77063 14.4013C2.91007 15.6921 4.48131 16.523 6.18959 16.7382V19.4528H3.0948C2.7788 19.4528 2.4869 19.6214 2.329 19.895C2.17111 20.1685 2.17111 20.5056 2.329 20.7792C2.4869 21.0527 2.77881 21.2213 3.0948 21.2213H11.0528C11.3688 21.2213 11.6607 21.0527 11.8186 20.7792C11.9765 20.5056 11.9765 20.1685 11.8186 19.895C11.6607 19.6214 11.3688 19.4528 11.0528 19.4528H7.95805V16.7382C9.66632 16.523 11.2376 15.6921 12.377 14.4013C13.5167 13.1103 14.1461 11.4482 14.1476 9.72635Z" fill="#0744E1"/>
</g>
</svg>
