<svg width="14" height="20" viewBox="0 0 14 20" fill="none" xmlns="http://www.w3.org/2000/svg">
<path d="M6.66667 13.3333C7.77176 13.3333 8.83148 12.8943 9.6129 12.1128C10.3943 11.3314 10.8333 10.2717 10.8333 9.16661V4.16661C10.8333 2.67794 10.0392 1.30242 8.75 0.558179C7.46076 -0.186059 5.87257 -0.186059 4.58333 0.558179C3.2941 1.30242 2.5 2.67799 2.5 4.16661V9.16661C2.5 10.2717 2.93899 11.3314 3.72043 12.1128C4.50187 12.8943 5.56157 13.3333 6.66667 13.3333ZM4.16667 4.16661C4.16667 3.27337 4.64324 2.44804 5.41667 2.00161C6.1901 1.55499 7.14324 1.55499 7.91667 2.00161C8.69009 2.44804 9.16667 3.27337 9.16667 4.16661V9.16661C9.16667 10.0598 8.69009 10.8852 7.91667 11.3316C7.14324 11.7782 6.1901 11.7782 5.41667 11.3316C4.64324 10.8852 4.16667 10.0598 4.16667 9.16661V4.16661Z" fill="#0744E1"/>
<path d="M13.3333 9.16657C13.3333 8.86877 13.1745 8.59367 12.9167 8.44486C12.6589 8.29605 12.3411 8.29605 12.0833 8.44486C11.8255 8.59367 11.6667 8.86878 11.6667 9.16657C11.6667 10.9529 10.7137 12.6035 9.16667 13.4968C7.61962 14.3898 5.71371 14.3898 4.16667 13.4968C2.61962 12.6035 1.66667 10.9529 1.66667 9.16657C1.66667 8.86877 1.50781 8.59367 1.25 8.44486C0.992186 8.29605 0.674476 8.29605 0.416667 8.44486C0.158857 8.59367 0 8.86878 0 9.16657C0.0014881 10.7893 0.594667 12.3558 1.66871 13.5724C2.74257 14.789 4.22338 15.572 5.83333 15.7748V18.3332H2.91667C2.61886 18.3332 2.34376 18.4921 2.19495 18.7499C2.04614 19.0077 2.04614 19.3254 2.19495 19.5832C2.34376 19.841 2.61887 19.9999 2.91667 19.9999H10.4167C10.7145 19.9999 10.9896 19.8411 11.1384 19.5832C11.2872 19.3254 11.2872 19.0077 11.1384 18.7499C10.9896 18.4921 10.7145 18.3332 10.4167 18.3332H7.5V15.7748C9.10995 15.5721 10.5908 14.789 11.6646 13.5724C12.7387 12.3557 13.3319 10.7893 13.3333 9.16657Z" fill="#0744E1"/>
</svg>
