<svg width="24" height="24" viewBox="0 0 24 24" fill="none" xmlns="http://www.w3.org/2000/svg">
<path d="M23.0929 10.9711C23.0928 10.7748 22.9784 10.6032 22.8019 10.5315L7.87289 4.48078C7.68081 4.40296 7.4533 4.45718 7.30393 4.61646C7.15445 4.77567 7.11467 5.00598 7.20447 5.19277L10.3593 11.7517L7.21305 18.697C7.12357 18.8947 7.16363 19.1201 7.31323 19.2611L7.3135 19.2613C7.46317 19.402 7.69054 19.4283 7.88234 19.327L22.8025 11.4461C22.98 11.3523 23.0931 11.1669 23.0932 10.9709L23.0929 10.9711ZM8.71134 17.7756L11.2361 12.2024L14.1889 12.0213C14.4671 12.0043 14.6922 11.7648 14.6921 11.486C14.6921 11.2072 14.4666 10.9954 14.1883 11.0124L11.2353 11.1936L8.70365 5.93044L21.3967 11.0751L8.71134 17.7756Z" fill="white"/>
</svg>
