<svg width="30" height="30" viewBox="0 0 30 30" fill="none" xmlns="http://www.w3.org/2000/svg">
<path id="Vector" d="M15 0C6.72923 0 0 6.72923 0 15C0 23.2708 6.72923 30 15 30C23.2708 30 30 23.2708 30 15C30 6.72923 23.2708 0 15 0ZM21.1538 16.1538H16.1538V21.1538C16.1538 21.7907 15.6369 22.3076 15 22.3076C14.3631 22.3076 13.8462 21.7907 13.8462 21.1538V16.1538H8.84624C8.20931 16.1538 7.6924 15.6369 7.6924 15C7.6924 14.3631 8.20931 13.8462 8.84624 13.8462H13.8462V8.84624C13.8462 8.20931 14.3631 7.6924 15 7.6924C15.6369 7.6924 16.1538 8.20931 16.1538 8.84624V13.8462H21.1538C21.7907 13.8462 22.3076 14.3631 22.3076 15C22.3076 15.6369 21.7907 16.1538 21.1538 16.1538Z" fill="#0744E1"/>
</svg>
