<svg width="39" height="38" viewBox="0 0 39 38" fill="none" xmlns="http://www.w3.org/2000/svg">
<g id="Group 19776">
<g id="Vector">
<path d="M19.4555 0C9.21696 0 0.886719 8.33024 0.886719 18.5688C0.886719 28.8073 9.21696 37.1375 19.4555 37.1375C29.694 37.1375 38.0243 28.8073 38.0243 18.5688C38.0243 8.33024 29.694 0 19.4555 0ZM27.0733 19.9971H20.8839V26.1866C20.8839 26.9751 20.244 27.615 19.4555 27.615C18.667 27.615 18.0271 26.9751 18.0271 26.1866V19.9971H11.8376C11.0492 19.9971 10.4093 19.3572 10.4093 18.5688C10.4093 17.7803 11.0492 17.1404 11.8376 17.1404H18.0271V10.9509C18.0271 10.1624 18.667 9.52256 19.4555 9.52256C20.244 9.52256 20.8839 10.1624 20.8839 10.9509V17.1404H27.0733C27.8618 17.1404 28.5017 17.7803 28.5017 18.5688C28.5017 19.3572 27.8618 19.9971 27.0733 19.9971Z" fill="#0744E1"/>
<path d="M27.0733 19.9971H20.8839V26.1866C20.8839 26.9751 20.244 27.615 19.4555 27.615C18.667 27.615 18.0271 26.9751 18.0271 26.1866V19.9971H11.8376C11.0492 19.9971 10.4093 19.3572 10.4093 18.5688C10.4093 17.7803 11.0492 17.1404 11.8376 17.1404H18.0271V10.9509C18.0271 10.1624 18.667 9.52256 19.4555 9.52256C20.244 9.52256 20.8839 10.1624 20.8839 10.9509V17.1404H27.0733C27.8618 17.1404 28.5017 17.7803 28.5017 18.5688C28.5017 19.3572 27.8618 19.9971 27.0733 19.9971Z" fill="#0744E1"/>
</g>
<path id="Vector_2" d="M12.2922 19.639L14.857 20.6666C15.4209 20.8937 15.9332 21.2323 16.3631 21.6622C16.793 22.0921 17.1316 22.6043 17.3587 23.1683L18.3834 25.7329C18.6419 26.3766 19.0922 26.9252 19.6733 27.3042C20.2543 27.6832 20.9379 27.8742 21.6313 27.8513C22.3246 27.8284 22.9941 27.5927 23.5489 27.1762C24.1037 26.7597 24.5168 26.1826 24.7323 25.5232L28.5763 13.7188C28.7684 13.1243 28.7926 12.4883 28.6462 11.881C28.4997 11.2736 28.1884 10.7185 27.7464 10.2769C27.3045 9.83529 26.7491 9.52432 26.1417 9.37831C25.5342 9.2323 24.8982 9.25692 24.3038 9.44945L12.502 13.2904C11.8426 13.5058 11.2654 13.9189 10.8489 14.4737C10.4323 15.0284 10.1966 15.6979 10.1737 16.3912C10.1508 17.0845 10.3418 17.7681 10.7208 18.3491C11.0998 18.9302 11.6485 19.3805 12.2922 19.639ZM13.0563 14.9981L24.8491 11.1572C25.1285 11.0667 25.4275 11.0552 25.713 11.1239C25.9985 11.1926 26.2595 11.3389 26.4672 11.5465C26.6748 11.7542 26.8211 12.0152 26.8898 12.3007C26.9585 12.5862 26.947 12.8851 26.8565 13.1645L23.0245 24.9689C22.9238 25.2777 22.7305 25.548 22.4708 25.7432C22.2111 25.9383 21.8976 26.0488 21.573 26.0596C21.2484 26.0704 20.9283 25.981 20.6562 25.8035C20.3841 25.6261 20.1733 25.3692 20.0523 25.0678L19.0276 22.5032C18.8526 22.0672 18.6295 21.6522 18.3624 21.2658L18.2126 21.0501L18.4493 20.8404L21.5893 17.7065C21.6776 17.6242 21.7484 17.525 21.7976 17.4147C21.8467 17.3045 21.8731 17.1855 21.8752 17.0648C21.8774 16.9441 21.8552 16.8242 21.81 16.7123C21.7648 16.6004 21.6975 16.4987 21.6121 16.4134C21.5268 16.328 21.4251 16.2607 21.3132 16.2155C21.2012 16.1703 21.0814 16.1481 20.9607 16.1503C20.84 16.1524 20.721 16.1788 20.6107 16.2279C20.5005 16.2771 20.4012 16.3479 20.3189 16.4362L16.9692 19.8097L16.7535 19.6599C16.3691 19.3931 15.956 19.17 15.5221 18.9948L12.9604 17.9702C12.6589 17.8492 12.402 17.6383 12.2246 17.3663C12.0471 17.0942 11.9577 16.7741 11.9685 16.4495C11.9793 16.1249 12.0898 15.8114 12.285 15.5518C12.4801 15.2921 12.7504 15.0988 13.0593 14.9981H13.0563Z" fill="white"/>
</g>
</svg>
