<svg width="35" height="35" viewBox="0 0 35 35" fill="none" xmlns="http://www.w3.org/2000/svg">
<path d="M17.5 0C7.85077 0 0 7.85077 0 17.5C0 27.1492 7.85077 35 17.5 35C27.1492 35 35 27.1492 35 17.5C35 7.85077 27.1492 0 17.5 0ZM24.6794 18.8462H18.8462V24.6794C18.8462 25.4225 18.2431 26.0255 17.5 26.0255C16.7569 26.0255 16.1538 25.4225 16.1538 24.6794V18.8462H10.3206C9.57752 18.8462 8.97446 18.2431 8.97446 17.5C8.97446 16.7569 9.57752 16.1538 10.3206 16.1538H16.1538V10.3206C16.1538 9.57752 16.7569 8.97446 17.5 8.97446C18.2431 8.97446 18.8462 9.57752 18.8462 10.3206V16.1538H24.6794C25.4225 16.1538 26.0255 16.7569 26.0255 17.5C26.0255 18.2431 25.4225 18.8462 24.6794 18.8462Z" fill="#0744E1"/>
<path d="M24.6794 18.8462H18.8462V24.6794C18.8462 25.4225 18.2431 26.0255 17.5 26.0255C16.7569 26.0255 16.1538 25.4225 16.1538 24.6794V18.8462H10.3206C9.57752 18.8462 8.97446 18.2431 8.97446 17.5C8.97446 16.7569 9.57752 16.1538 10.3206 16.1538H16.1538V10.3206C16.1538 9.57752 16.7569 8.97446 17.5 8.97446C18.2431 8.97446 18.8462 9.57752 18.8462 10.3206V16.1538H24.6794C25.4225 16.1538 26.0255 16.7569 26.0255 17.5C26.0255 18.2431 25.4225 18.8462 24.6794 18.8462Z" fill="#0744E1"/>
<path d="M10.7483 18.5086L13.1654 19.4771C13.6969 19.6911 14.1797 20.0102 14.5849 20.4154C14.99 20.8205 15.3092 21.3033 15.5232 21.8348L16.4889 24.2518C16.7325 24.8584 17.1569 25.3755 17.7045 25.7327C18.2521 26.0898 18.8964 26.2698 19.5498 26.2483C20.2033 26.2267 20.8342 26.0045 21.3571 25.612C21.8799 25.2195 22.2693 24.6755 22.4723 24.0541L26.0951 12.9292C26.2762 12.3689 26.299 11.7695 26.161 11.1971C26.0229 10.6247 25.7295 10.1016 25.313 9.68538C24.8965 9.26919 24.3731 8.97612 23.8006 8.83852C23.2281 8.70091 22.6287 8.72411 22.0685 8.90556L10.946 12.5254C10.3245 12.7284 9.78058 13.1178 9.38803 13.6406C8.99547 14.1634 8.77332 14.7944 8.75174 15.4478C8.73015 16.1012 8.91017 16.7454 9.26737 17.293C9.62456 17.8406 10.1416 18.265 10.7483 18.5086ZM11.4684 14.1348L22.5824 10.515C22.8458 10.4298 23.1275 10.4189 23.3966 10.4837C23.6657 10.5484 23.9117 10.6862 24.1074 10.8819C24.3031 11.0776 24.4409 11.3236 24.5057 11.5927C24.5704 11.8618 24.5596 12.1435 24.4743 12.4068L20.8628 23.5317C20.7679 23.8228 20.5857 24.0775 20.341 24.2615C20.0963 24.4454 19.8009 24.5495 19.4949 24.5596C19.1889 24.5698 18.8873 24.4856 18.6309 24.3183C18.3744 24.1511 18.1757 23.909 18.0617 23.6249L17.096 21.2079C16.9311 20.7971 16.7208 20.406 16.4691 20.0418L16.328 19.8385L16.551 19.6408L19.5103 16.6874C19.5935 16.6098 19.6602 16.5163 19.7065 16.4124C19.7528 16.3085 19.7777 16.1963 19.7797 16.0826C19.7818 15.9688 19.7608 15.8559 19.7182 15.7504C19.6756 15.6449 19.6122 15.5491 19.5318 15.4687C19.4513 15.3882 19.3555 15.3248 19.25 15.2822C19.1445 15.2396 19.0316 15.2187 18.9178 15.2207C18.8041 15.2227 18.6919 15.2476 18.588 15.2939C18.4841 15.3402 18.3906 15.4069 18.313 15.4902L15.1561 18.6695L14.9528 18.5283C14.5905 18.2769 14.2012 18.0666 13.7923 17.9015L11.378 16.9358C11.0939 16.8218 10.8518 16.6231 10.6846 16.3667C10.5173 16.1103 10.4331 15.8086 10.4433 15.5027C10.4534 15.1967 10.5575 14.9013 10.7415 14.6566C10.9254 14.4119 11.1801 14.2297 11.4712 14.1348H11.4684Z" fill="white"/>
</svg>
